<svg height="512pt" viewBox="-30 0 512 512.05285" width="512pt" xmlns="http://www.w3.org/2000/svg"><path d="m432.929688 125.75c.03125 11.808594-7.441407 22.335938-18.605469 26.195312-.082031.085938-.082031.085938-.167969.085938-6.96875-14.339844-21.363281-23.585938-37.300781-23.964844-15.9375-.375-30.753907 8.179688-38.390625 22.171875-.335938.511719-.621094 1.054688-.851563 1.621094-.414062-.101563-.8125-.246094-1.195312-.425781-8.480469-2.910156-15.671875-8.710938-20.3125-16.382813-.90625 1.285157-1.96875 2.460938-3.15625 3.5 0 .132813-.0625.257813-.167969.339844-11.480469 10.070313-26.386719 15.355469-41.644531 14.761719-11.214844.152344-22.285157-2.550782-32.171875-7.851563-1.707032-10.066406-18.941406-9.214843-29.523438-9.214843-1.757812.011718-3.503906.242187-5.207031.683593-3.636719-15.394531-17.375-26.273437-33.195313-26.285156-.96875-.027344-1.9375.03125-2.898437.171875-2.390625-6.824219.167969-19.539062-2.988281-26.453125-.476563-1.027344-1.140625-1.953125-1.960938-2.730469 2.226563-2.921875 4.804688-5.558594 7.679688-7.851562 4.90625-3.9375 10.613281-6.761719 16.722656-8.277344-.136719-.46875-.195312-.960938-.167969-1.449219-.046875-10.625 3.007813-21.035156 8.789063-29.953125 11.195312-17.609375 31.285156-27.496094 52.066406-25.628906 20.785156 1.867188 38.789062 15.179688 46.664062 34.503906 3.148438-.820312 6.386719-1.25 9.640626-1.28125 19.636718.003906 36.21875 14.578125 38.742187 34.050782 1.9375-.386719 3.914063-.558594 5.886719-.511719 2.035156-.050781 4.066406.121093 6.0625.511719.859375.085937 1.714844.226562 2.558594.425781 1.078124.222656 2.132812.535156 3.15625.9375.234374.027343.464843.085937.683593.171875.9375.265625 1.851563.609375 2.730469 1.023437.675781.261719 1.332031.574219 1.960938.9375 1.230468.539063 2.402343 1.195313 3.5 1.964844 1.28125.644531 2.460937 1.480469 3.5 2.472656.691406.554688 1.347656 1.152344 1.960937 1.792969.554687.300781 1.046875.707031 1.453125 1.195312.59375.597657 1.023438 1.109376 1.621094 1.707032.089844.09375.148437.210937.167968.339844 1.207032 1.320312 2.292969 2.75 3.242188 4.265624.96875 1.441407 1.824219 2.953126 2.5625 4.523438 1.152344 2.121094 2.011719 4.390625 2.558594 6.742188 5.003906-4.378907 11.441406-6.777344 18.089844-6.742188 15.410156.003906 27.902343 12.496094 27.90625 27.90625zm0 0" fill="#007900"/><path d="m415.863281 142.816406c.015625 3.109375-.503906 6.199219-1.539062 9.128906-.082031.085938-.082031.085938-.167969.085938-6.96875-14.339844-21.363281-23.585938-37.300781-23.964844-15.9375-.375-30.753907 8.179688-38.390625 22.171875-.683594.429688-1.367188.769531-2.046875 1.195313-8.480469-2.910156-15.671875-8.710938-20.3125-16.382813-.90625 1.285157-1.96875 2.460938-3.15625 3.5 0 .132813-.0625.257813-.167969.339844-11.480469 10.070313-26.386719 15.355469-41.644531 14.761719-11.214844.152344-22.285157-2.550782-32.171875-7.851563-1.707032-10.066406-18.941406-9.214843-29.523438-9.214843-1.757812.011718-3.503906.242187-5.207031.683593-3.636719-15.394531-17.375-26.273437-33.195313-26.285156-.96875-.027344-1.9375.03125-2.898437.171875-2.390625-6.824219.167969-19.539062-2.988281-26.453125 1.726562-.773437 3.527344-1.375 5.375-1.792969-.136719-.46875-.195313-.960937-.167969-1.449218-.003906-2.457032.167969-4.90625.511719-7.339844 4.90625-3.9375 10.613281-6.761719 16.722656-8.277344-.136719-.46875-.195312-.960938-.167969-1.449219-.046875-10.625 3.007813-21.035156 8.789063-29.953125 8.914062-5.78125 19.324218-8.835937 29.953125-8.789062 22.679687.03125 43.101562 13.746094 51.710937 34.730468 3.148438-.820312 6.386719-1.25 9.640625-1.277343 19.636719.003906 36.21875 14.574219 38.742188 34.046875 1.9375-.386719 3.914062-.558594 5.886719-.511719 2.035156-.050781 4.066406.121094 6.058593.511719.863281.085937 1.71875.226562 2.5625.425781 1.078125.222656 2.132813.535156 3.15625.9375.234375.027344.464844.085937.683594.171875.9375.265625 1.847656.609375 2.730469 1.023438.675781.261718 1.332031.574218 1.960937.9375 1.230469.539062 2.402344 1.195312 3.5 1.964843 1.28125.644531 2.460938 1.480469 3.5 2.472657.691407.554687 1.347657 1.152343 1.960938 1.792968.554687.300782 1.046875.707032 1.449219 1.195313.597656.597656 1.027343 1.109375 1.625 1.707031.089843.09375.148437.210938.167968.339844 1.207032 1.324218 2.292969 2.75 3.242188 4.269531.96875 1.4375 1.824218 2.949219 2.5625 4.519531 1.152344 2.121094 2.011718 4.390625 2.558594 6.742188 5.003906-4.378906 11.441406-6.777344 18.089843-6.742188 15.410157.007813 27.898438 12.496094 27.90625 27.90625zm0 0" fill="#008a00"/><path d="m256.375 281.652344c-15.871094 26.367187-8.789062 43.007812-1.195312 51.796875l-88.660157 3.753906c.347657-.390625.71875-.757813 1.109375-1.109375 13.773438-14.226562 26.332032-29.582031 37.546875-45.90625 17.066407-25.601562 17.066407-51.203125-8.535156-59.734375-19.796875-6.570313-48.128906-28.5-28.5-61.695313h.085937l9.46875-23.039062 2.902344-7 19.96875-7.082031 7.167969 36.4375c-6.742187 11.519531-7.9375 23.636719 5.972656 28.246093 7.160157 2.511719 13.960938 5.957032 20.222657 10.238282l26.625 30.636718c6.105468 14.589844 4.539062 31.261719-4.179688 44.457032zm0 0" fill="#624421"/><path d="m230.773438 281.652344c-15.871094 26.367187-8.789063 43.007812-1.195313 51.796875l-61.949219 2.644531c13.773438-14.226562 26.332032-29.582031 37.546875-45.90625 17.066407-25.601562 17.066407-51.203125-8.535156-59.734375-14.179687-4.160156-25.976563-14.0625-32.527344-27.308594-3.207031-7.980469-3.339843-16.867187-.367187-24.941406 3.804687-10.972656 9.4375-21.691406 13.824218-32.511719-.964843 2.414063 1.628907 7.328125 2.207032 9.738282 1.175781 4.792968 1.320312 9.785156.429687 14.640624-1.136719 4.960938-1.992187 9.980469-2.5625 15.035157-.480469 6.597656 2.085938 13.046875 6.964844 17.511719 4.335937 3.589843 9.195313 6.492187 14.414063 8.609374 14.265624 6.613282 33.160156 16.546876 38.167968 32.980469 3.117188 12.832031.792969 26.382813-6.417968 37.445313zm0 0" fill="#825a2c"/><path d="m375.839844 375.519531-145.066406 22.953125-17.066407-2.730468-128-20.222657c0-21.84375 55.894531-39.851562 128-42.324219 5.546875-.257812 11.265625-.34375 17.066407-.34375 80.128906 0 145.066406 19.117188 145.066406 42.667969zm0 0" fill="#fdd834"/><path d="m341.707031 375.519531-128 20.222657-128-20.222657c0-21.84375 55.894531-39.851562 128-42.324219 72.105469 2.472657 128 20.480469 128 42.324219zm0 0" fill="#ffeb3a"/><path d="m239.308594 149.386719c0 11.78125-9.550782 21.332031-21.335938 21.332031-2.601562.015625-5.179687-.476562-7.59375-1.449219-.917968-.3125-1.804687-.710937-2.644531-1.195312-2.46875-1.277344-4.625-3.082031-6.316406-5.289063-2.800781 2.394532-6.007813 4.273438-9.46875 5.546875-7.59375 3.03125-16.03125 3.179688-23.722657.425781h-.085937c-4.164063-1.484374-7.992187-3.777343-11.265625-6.742187-7.542969 5.167969-16.378906 8.125-25.515625 8.535156h-.082031c-.023438 0-.046875.007813-.0625.023438s-.023438.039062-.023438.058593c-.941406.085938-1.878906.085938-2.816406.085938-12.269531.0625-24.140625-4.367188-33.367188-12.457031-5.351562 6.457031-12.875 10.734375-21.160156 12.03125-1.722656.273437-3.464844.414062-5.207031.425781-.96875.027344-1.941406-.027344-2.902344-.167969-6.964843-.578125-13.578125-3.289062-18.941406-7.765625-4.007813 5.046875-10.113281 7.972656-16.554687 7.933594-8.289063.058594-15.859376-4.691406-19.414063-12.175781-3.558594-7.484375-2.460937-16.351563 2.816406-22.742188 5.277344-6.390625 13.777344-9.144531 21.800781-7.066406 1.617188-6.816406 5.28125-12.980469 10.496094-17.664063 3.359375-2.9375 7.238282-5.226562 11.433594-6.738281 3.628906-1.238281 7.433594-1.875 11.265625-1.878906 3.6875-.015625 7.351563.589844 10.835937 1.792969 3.515626-11.171875 10.742188-20.804688 20.480469-27.308594 13.15625-8.808594 29.652344-11.019531 44.664063-5.996094 15.015625 5.027344 26.851562 16.726563 32.050781 31.683594.960937-.144531 1.933594-.199219 2.902344-.171875 15.816406.011719 29.554687 10.886719 33.195312 26.28125 5.757813-1.5 11.882813-.503906 16.871094 2.742187 4.984375 3.25 8.371094 8.449219 9.324219 14.324219.242187 1.179688.355468 2.382813.34375 3.585938zm0 0" fill="#549414"/><path d="m213.707031 157.917969c.023438 4.027343-1.132812 7.972656-3.328125 11.351562-.917968-.3125-1.804687-.710937-2.644531-1.195312-2.46875-1.277344-4.625-3.082031-6.316406-5.289063-2.800781 2.394532-6.007813 4.273438-9.46875 5.546875-7.59375 3.03125-16.03125 3.179688-23.722657.425781h-.085937c-4.164063-1.484374-7.992187-3.777343-11.265625-6.742187-7.542969 5.167969-16.378906 8.125-25.515625 8.535156h-.082031c-.023438 0-.046875.007813-.0625.023438s-.023438.039062-.023438.058593c-.941406.085938-1.878906.085938-2.816406.085938-12.269531.0625-24.140625-4.367188-33.367188-12.457031-5.351562 6.457031-12.875 10.734375-21.160156 12.03125-1.539062-1.109375-3.074218-2.304688-4.4375-3.5-1.113281 1.355469-2.34375 2.613281-3.671875 3.757812-6.964843-.578125-13.578125-3.289062-18.941406-7.765625-4.007813 5.046875-10.113281 7.972656-16.554687 7.933594-8.289063.058594-15.859376-4.691406-19.414063-12.175781-3.558594-7.484375-2.460937-16.351563 2.816406-22.742188 5.277344-6.390625 13.777344-9.144531 21.800781-7.066406 1.617188-6.816406 5.28125-12.980469 10.496094-17.664063 2.703125.265626 5.363282.835938 7.9375 1.707032.953125-2.898438 2.121094-5.722656 3.496094-8.445313 3.628906-1.238281 7.433594-1.875 11.265625-1.878906 3.6875-.015625 7.351563.589844 10.835937 1.792969 3.515626-11.171875 10.742188-20.804688 20.480469-27.308594.941407-.085938 1.878907-.085938 2.816407-.085938 12.914062 0 25.347656 4.875 34.816406 13.65625 6.136718 5.65625 10.769531 12.753907 13.484375 20.648438.957031-.140625 1.929687-.199219 2.898437-.171875 15.820313.011719 29.558594 10.890625 33.195313 26.285156 5.761719-1.503906 11.886719-.507812 16.871093 2.742188 4.988282 3.25 8.375 8.449219 9.328126 14.324219.238281 1.179687.355468 2.378906.339843 3.582031zm0 0" fill="#60a917"/><path d="m435.574219 384.054688c0 47.125-38.207031 85.332031-85.332031 85.332031h-238.933594c-47.128906 0-85.335938-38.207031-85.335938-85.332031 0-4.714844 3.820313-8.535157 8.535156-8.535157h392.53125c4.714844 0 8.535157 3.820313 8.535157 8.535157zm0 0" fill="#0377bc"/><path d="m409.972656 384.054688c0 47.125-38.203125 85.332031-85.332031 85.332031h-213.332031c-47.128906 0-85.335938-38.207031-85.335938-85.332031 0-4.714844 3.820313-8.535157 8.535156-8.535157h366.933594c4.710938 0 8.53125 3.820313 8.53125 8.535157zm0 0" fill="#02a9f4"/><path d="m171.039062 469.386719v17.066406c-.027343 9.414063-7.652343 17.039063-17.066406 17.066406h-25.597656c-9.414062-.027343-17.039062-7.652343-17.066406-17.066406v-17.066406zm0 0" fill="#283593"/><path d="m358.773438 469.386719v17.066406c-.027344 9.414063-7.652344 17.039063-17.066407 17.066406h-25.601562c-9.410157-.027343-17.035157-7.652343-17.066407-17.066406v-17.066406zm0 0" fill="#283593"/><path d="m153.972656 469.386719v17.066406c-.027344 9.414063-7.652344 17.039063-17.066406 17.066406h-8.53125c-9.414062-.027343-17.039062-7.652343-17.066406-17.066406v-17.066406zm0 0" fill="#3f51b5"/><path d="m341.707031 469.386719v17.066406c-.027343 9.414063-7.652343 17.039063-17.066406 17.066406h-8.535156c-9.410157-.027343-17.035157-7.652343-17.066407-17.066406v-17.066406zm0 0" fill="#3f51b5"/><path d="m444.105469 204.851562c0 18.851563-15.28125 34.132813-34.132813 34.132813-.9375 0-1.960937-.082031-2.898437-.167969-8.160157-.925781-15.78125-4.527344-21.675781-10.242187-6.808594 5.664062-15.164063 9.140625-23.980469 9.984375-1.277344.171875-2.558594.257812-3.839844.34375-1.023437.082031-2.046875.082031-3.070313.082031-11.660156.453125-23.050781-3.578125-31.828124-11.261719-.085938-.085937-.171876-.171875-.171876-.257812-.886718-.824219-1.6875-1.738282-2.390624-2.730469-4.460938 7.398437-11.953126 12.453125-20.480469 13.824219-1.605469.269531-3.234375.414062-4.863281.425781-1.484376.019531-2.96875-.09375-4.4375-.339844-7.644532-1.109375-14.539063-5.1875-19.199219-11.347656-2.242188 4.449219-5.992188 7.957031-10.582031 9.898437-2.652344 1.203126-5.535157 1.816407-8.449219 1.789063-1.402344-.007813-2.800781-.152344-4.179688-.425781-1.191406-.25-2.359375-.59375-3.5-1.023438-8.207031-3.1875-13.625-11.078125-13.652343-19.882812-.027344-3.921875 1.066406-7.773438 3.15625-11.09375.085937-.085938.085937-.167969.171874-.253906 3.078126-4.953126 8.09375-8.390626 13.824219-9.472657 1.367188-.34375 2.773438-.515625 4.179688-.511719 5.082031-.042968 10 1.78125 13.824219 5.121094.4375-1.785156 1.097656-3.503906 1.964843-5.121094.570313-1.210937 1.226563-2.382812 1.960938-3.5.75-1.136718 1.578125-2.21875 2.476562-3.242187 0-.085937.085938-.171875.171875-.257813.339844-.339843.679688-.765624 1.023438-1.109374l.167968-.167969c.308594-.382813.683594-.699219 1.109376-.9375.511718-.515625 1.023437-.941407 1.539062-1.367188.785156-.75 1.675781-1.378906 2.644531-1.878906.859375-.59375 1.773438-1.105469 2.730469-1.535156.457031-.277344.945312-.507813 1.449219-.683594.683593-.328125 1.398437-.585937 2.132812-.765625.15625-.09375.332031-.152344.511719-.171875.769531-.316406 1.570312-.546875 2.390625-.683594.644531-.160156 1.300781-.273437 1.964844-.339843 1.511719-.316407 3.058593-.457032 4.605469-.425782 1.519531-.03125 3.035156.109375 4.523437.425782.839844-6.496094 3.808594-12.527344 8.449219-17.152344 1.621094-1.707032 3.457031-3.195313 5.460937-4.4375 4.714844-2.921875 10.152344-4.460938 15.699219-4.4375 2.503906.007812 5 .324218 7.425781.9375.339844-.945313.765625-1.859375 1.28125-2.730469 2.90625-6.039063 7.242188-11.28125 12.628907-15.273437 10.175781-7.636719 23.230468-10.328126 35.597656-7.339844 12.363281 2.988281 22.75 11.34375 28.316406 22.785156 2.886719 5.804688 4.378906 12.203125 4.351562 18.6875.011719.371094-.015624.746094-.085937 1.109375 15.109375 3.835937 25.6875 17.4375 25.683594 33.023437zm0 0" fill="#549414"/><path d="m418.507812 213.386719c.027344 9.726562-4.140624 18.996093-11.433593 25.429687-8.160157-.925781-15.78125-4.527344-21.675781-10.242187-6.808594 5.664062-15.164063 9.140625-23.980469 9.984375-.597657-.511719-1.109375-.9375-1.621094-1.449219-.679687.597656-1.449219 1.195313-2.21875 1.792969-1.023437.082031-2.046875.082031-3.070313.082031-11.660156.453125-23.050781-3.578125-31.828124-11.261719-.085938-.085937-.171876-.171875-.171876-.257812-.886718-.824219-1.6875-1.738282-2.390624-2.730469-4.460938 7.398437-11.953126 12.453125-20.480469 13.824219-.9375-.765625-1.789063-1.535156-2.558594-2.304688-.085937-.082031-.171875-.167968-.171875-.253906-.886719-.828125-1.6875-1.742188-2.386719-2.730469-1.203125 1.933594-2.605469 3.734375-4.183593 5.375-7.644532-1.109375-14.539063-5.1875-19.199219-11.347656-2.242188 4.449219-5.992188 7.957031-10.582031 9.898437-2.652344 1.203126-5.535157 1.816407-8.449219 1.789063-1.402344-.007813-2.800781-.152344-4.179688-.425781-.851562-.851563-1.621093-1.792969-2.390625-2.730469-.285156.617187-.660156 1.191406-1.109375 1.707031-8.207031-3.1875-13.625-11.078125-13.652343-19.882812-.027344-3.921875 1.066406-7.773438 3.15625-11.09375.085937-.085938.085937-.167969.171874-.253906 2.308594.78125 4.429688 2.03125 6.230469 3.667968.4375-1.78125 1.097657-3.503906 1.960938-5.121094.570312-1.210937 1.226562-2.378906 1.964843-3.496093.75-1.136719 1.574219-2.222657 2.472657-3.242188 0-.085937.085937-.171875.171875-.257812.320312-.363281.660156-.703125 1.023437-1.023438 1.367188-.34375 2.773438-.515625 4.179688-.511719 5.082031-.042968 10 1.78125 13.824219 5.121094.4375-1.785156 1.097656-3.503906 1.964843-5.121094.570313-1.210937 1.226563-2.382812 1.960938-3.5.75-1.136718 1.578125-2.21875 2.476562-3.242187 0-.085937.085938-.171875.171875-.257813.339844-.339843.679688-.765624 1.023438-1.109374h.167968v-.167969c.308594-.382813.683594-.699219 1.109376-.9375.511718-.515625 1.023437-.941407 1.539062-1.367188.785156-.75 1.675781-1.378906 2.644531-1.878906.859375-.59375 1.773438-1.105469 2.730469-1.535156.457031-.277344.945312-.507813 1.449219-.683594.683593-.328125 1.398437-.585937 2.132812-.765625.15625-.09375.332031-.152344.511719-.171875.769531-.316406 1.570312-.546875 2.390625-.683594.644531-.160156 1.300781-.273437 1.964844-.339843 1.511719-.316407 3.058593-.457032 4.605469-.425782 1.519531-.03125 3.035156.109375 4.523437.425782.839844-6.496094 3.808594-12.527344 8.449219-17.152344 1.023437.171875 2.046875.339844 2.984375.597656.339843-.949219.769531-1.863281 1.28125-2.730469.339843-.769531.769531-1.535156 1.195312-2.304687 4.714844-2.921875 10.152344-4.460938 15.699219-4.4375 2.503906.007812 5 .324218 7.425781.9375.339844-.945313.765625-1.859375 1.28125-2.730469 2.90625-6.039063 7.242188-11.28125 12.628907-15.273437 16.300781.015624 31.171874 9.320312 38.3125 23.980468 2.890624 5.804688 4.378906 12.203125 4.351562 18.6875.015625.371094-.011719.742188-.085938 1.109375 15.109376 3.832031 25.691407 17.433594 25.6875 33.023438zm0 0" fill="#60a917"/><path d="m350.242188 477.917969h-238.933594c-51.816406-.058594-93.808594-42.050781-93.867188-93.863281 0-9.425782 7.640625-17.070313 17.066406-17.070313h392.53125c9.425782 0 17.066407 7.644531 17.066407 17.070313-.058594 51.8125-42.050781 93.804687-93.863281 93.863281zm-315.734376-93.863281c.050782 42.390624 34.40625 76.746093 76.800782 76.796874h238.933594c42.390624-.050781 76.746093-34.40625 76.796874-76.796874zm0 0"/><path d="m153.972656 512.054688h-25.597656c-14.140625 0-25.601562-11.464844-25.601562-25.601563v-17.066406c0-4.714844 3.820312-8.535157 8.535156-8.535157h59.730468c4.714844 0 8.535157 3.820313 8.535157 8.535157v17.066406c0 14.136719-11.460938 25.601563-25.601563 25.601563zm-34.132812-34.136719v8.535156c0 4.710937 3.820312 8.53125 8.535156 8.53125h25.597656c4.714844 0 8.535156-3.820313 8.535156-8.53125v-8.535156zm0 0"/><path d="m341.707031 512.054688h-25.601562c-14.136719 0-25.597657-11.464844-25.597657-25.601563v-17.066406c0-4.714844 3.820313-8.535157 8.53125-8.535157h59.734376c4.714843 0 8.535156 3.820313 8.535156 8.535157v17.066406c0 14.136719-11.460938 25.601563-25.601563 25.601563zm-34.132812-34.136719v8.535156c0 4.710937 3.820312 8.53125 8.53125 8.53125h25.601562c4.714844 0 8.535157-3.820313 8.535157-8.53125v-8.535156zm0 0"/><path d="m217.972656 179.253906c-6.230468.027344-12.308594-1.914062-17.371094-5.546875-13.917968 7.65625-30.898437 7.121094-44.304687-1.390625-19.25 9.9375-42.335937 8.871094-60.589844-2.800781-13.734375 10.957031-32.703125 12.609375-48.125 4.191406-5.054687 3.625-11.121093 5.566407-17.339843 5.546875-16.496094.191406-30.023438-13.027344-30.2148442-29.523437-.1914058-16.492188 13.0273442-30.019531 29.5234372-30.210938 7.597657-17.421875 25.800781-27.714843 44.644531-25.25 9.78125-21.007812 30.832032-34.460937 54.003907-34.519531 23.175781-.054688 44.289062 13.296875 54.171875 34.253906 15.933594 1.003906 29.957031 10.863282 36.292968 25.515625 16.496094.191407 29.714844 13.71875 29.523438 30.210938-.191406 16.496093-13.71875 29.714843-30.214844 29.523437zm-16.554687-25.003906h.855469c2.296874.238281 4.398437 1.394531 5.828124 3.207031 2.386719 3.015625 6.027344 4.761719 9.871094 4.730469 7.070313 0 12.800782-5.730469 12.800782-12.800781 0-7.070313-5.730469-12.800781-12.800782-12.800781-1.054687.011718-2.101562.152343-3.121094.425781-2.210937.566406-4.558593.210937-6.503906-.980469-1.953125-1.183594-3.351562-3.101562-3.882812-5.324219-2.800782-11.796875-13.476563-20.023437-25.597656-19.730469-.242188-.015624-.484376-.015624-.726563 0-4.113281.609376-8.09375-1.722656-9.574219-5.605468-5.96875-17.085938-22.09375-28.527344-40.191406-28.519532-18.628906.113282-35.074219 12.191407-40.746094 29.9375-.691406 2.210938-2.25 4.046876-4.316406 5.085938-2.070312 1.039062-4.472656 1.191406-6.660156.425781-2.578125-.886719-5.285156-1.332031-8.011719-1.316406-11.875-.019531-22.195313 8.15625-24.890625 19.722656-.527344 2.222657-1.921875 4.140625-3.875 5.324219s-4.296875 1.539062-6.511719.980469c-1.019531-.273438-2.066406-.414063-3.121093-.425781-7.070313 0-12.800782 5.730468-12.800782 12.800781 0 7.070312 5.730469 12.800781 12.800782 12.800781 3.828124.035156 7.464843-1.691406 9.855468-4.6875 1.421875-1.816406 3.523438-2.980469 5.820313-3.222656 2.296875-.242188 4.589843.457031 6.363281 1.933594 4.582031 3.855468 10.375 5.96875 16.359375 5.976562 7.671875-.019531 14.933594-3.460938 19.804687-9.386719 1.472657-1.769531 3.597657-2.871093 5.890626-3.054687 2.292968-.179688 4.566406.574218 6.296874 2.089844 7.65625 6.746093 17.535157 10.429687 27.742188 10.351562 8.449219.019531 16.714844-2.5 23.714844-7.238281 3.246094-2.199219 7.578125-1.898438 10.496094.726562 9.527343 8.195313 23.542968 8.4375 33.347656.570313 1.535156-1.289063 3.480468-1.996094 5.484375-1.996094zm0 0"/><path d="m322.667969 236.253906c-2.261719.003906-4.429688-.894531-6.023438-2.5-1.65625-1.679687-2.613281-3.929687-2.671875-6.289062.082032-4.746094 3.976563-8.539063 8.722656-8.496094 4.75.042969 8.574219 3.90625 8.566407 8.65625-.007813 4.75-3.84375 8.601562-8.59375 8.628906zm0 0"/><path d="m354.507812 247.519531c-13.910156.488281-27.464843-4.429687-37.828124-13.722656-.214844-.222656-.425782-.453125-.625-.691406-1.035157-1.042969-1.988282-2.167969-2.847657-3.359375-2.765625-3.820313-1.910156-9.152344 1.90625-11.917969 3.816407-2.765625 9.152344-1.910156 11.917969 1.90625.359375.515625.765625.992187 1.21875 1.425781.324219.292969.628906.609375.90625.945313 7.15625 5.765625 16.167969 8.730469 25.351562 8.347656 9.097657.328125 18.019532-2.578125 25.171876-8.210937 3.511718-3.023438 8.796874-2.695313 11.90625.746093 3.105468 3.441407 2.898437 8.734375-.46875 11.917969-10.269532 8.507812-23.28125 12.988281-36.609376 12.613281zm0 0"/><path d="m409.972656 247.519531c-11.40625-.28125-22.292968-4.851562-30.480468-12.800781-2.285157-2.089844-3.257813-5.253906-2.542969-8.265625.714843-3.015625 3.003906-5.40625 5.988281-6.246094 2.980469-.839843 6.183594 0 8.367188 2.199219 5.011718 4.898438 11.664062 7.765625 18.667968 8.046875 12.824219-.101563 23.59375-9.675781 25.199219-22.398437 1.601563-12.71875-6.453125-24.667969-18.847656-27.949219-4.222657-1.070313-6.957031-5.148438-6.351563-9.460938-.078125-16.273437-11.632812-30.226562-27.605468-33.335937-15.96875-3.113282-31.917969 5.484375-38.101563 20.535156-1.597656 3.933594-5.84375 6.09375-9.964844 5.066406-5.929687-1.566406-12.246093-.496094-17.328125 2.9375-5.082031 3.433594-8.429687 8.898438-9.183594 14.984375-.308593 2.394531-1.621093 4.550781-3.605468 5.925781-1.988282 1.378907-4.464844 1.847657-6.816406 1.292969-.851563-.171875-1.722657-.261719-2.59375-.265625-.886719-.027344-1.777344.039063-2.652344.199219-.28125.066406-.574219.117187-.855469.160156s-1.140625.195313-1.371094.238281c-.613281.265626-1.25.460938-1.90625.589844l-.59375.179688c-.351562.167968-1.136719.460937-1.503906.589844-.691406.328124-1.359375.703124-2.003906 1.117187-.253907.179687-.519531.339844-.792969.484375-.265625.128906-.515625.285156-.746094.46875-.851562.742188-1.167968 1-1.492187 1.324219-.414063.414062-.871094.789062-1.363281 1.109375l-.070313.101562h.042969l-.273438.289063c-.175781.238281-.363281.46875-.5625.683593-.621094.734376-1.191406 1.507813-1.707031 2.320313-.5.789063-.945313 1.605469-1.339844 2.449219-.566406 1.039062-1.003906 2.140625-1.296875 3.285156-.691406 2.917969-2.863281 5.261719-5.722656 6.167969-2.855469.90625-5.980469.246093-8.230469-1.738281-2.285156-1.960938-5.214843-3.011719-8.226562-2.953126-6.296875 0-11.660157 4.585938-12.640625 10.808594-.984375 6.222656 2.710937 12.234375 8.703125 14.171875 5.996093 1.9375 12.507812-.773437 15.355469-6.394531 1.328124-2.617188 3.910156-4.371094 6.835937-4.636719s5.78125.988281 7.5625 3.324219c4.242187 5.5625 10.957031 8.667969 17.941406 8.300781 6.988281-.367187 13.339844-4.160156 16.976563-10.136719 2.476562-3.96875 7.691406-5.203124 11.683594-2.765624 3.996093 2.4375 5.28125 7.640624 2.882812 11.65625-5.605469 9.171874-14.808594 15.566406-25.355469 17.617187-10.550781 2.050781-21.480469-.425781-30.113281-6.828125-10.875 9.585938-27.070312 9.960938-38.375.886719-11.308594-9.074219-14.449219-24.964844-7.445312-37.660157 7.003906-12.691406 22.125-18.507812 35.828124-13.777343.292969-.480469.589844-.964844.921876-1.445313.859374-1.273437 1.789062-2.503906 2.78125-3.675781.300781-.414063.636718-.800781 1.007812-1.152344l1.007812-1.109375c.589844-.628906 1.234376-1.199218 1.929688-1.707031.425781-.382813.851562-.75 1.285156-1.117187 1.101563-1.027344 2.332032-1.90625 3.664063-2.613282 1.042969-.695312 2.136719-1.3125 3.273437-1.84375.679688-.382812 1.382813-.714844 2.109375-.996094.953125-.425781 1.9375-.777343 2.945313-1.050781 1.195312-.46875 2.429687-.820312 3.695312-1.050781.808594-.195312 1.632813-.339844 2.464844-.425781 1.210938-.269531 2.445312-.421875 3.6875-.453125 5.730469-16.238282 21.554688-26.695313 38.738281-25.597656 11.085938-19.320313 33.386719-29.261719 55.164063-24.585938 21.777344 4.679688 38.035156 22.898438 40.207031 45.066406 18.597656 8 29.011719 27.96875 24.929687 47.796875-4.082031 19.828125-21.539062 34.058594-41.785156 34.0625zm-130.054687-54.03125c-.121094.234375-.253907.46875-.402344.6875.222656-.160156.433594-.335937.632813-.527343zm-6.058594-4.125h.222656l-.984375-.691406zm13.175781-.21875c-.40625.058594-.8125.089844-1.222656.09375.410156 0 .816406-.03125 1.222656-.09375zm0 0"/><path d="m312.761719 147.457031c-4.777344-.03125-8.632813-3.910156-8.640625-8.6875-.011719-4.777343 3.832031-8.667969 8.609375-8.71875 4.777343-.050781 8.703125 3.757813 8.796875 8.53125-.082032 2.394531-1.054688 4.667969-2.730469 6.375-1.601563 1.601563-3.773437 2.5-6.035156 2.5zm0 0"/><path d="m271.136719 162.1875c-12.679688.132812-25.191407-2.945312-36.359375-8.953125-4.019532-2.355469-5.40625-7.496094-3.121094-11.554687 2.289062-4.054688 7.40625-5.527344 11.5-3.308594 8.609375 4.570312 18.234375 6.890625 27.980469 6.75 12.664062.492187 25.078125-3.632813 34.925781-11.617188.382812-.511718.816406-.984375 1.296875-1.40625.683594-.589844 1.289063-1.265625 1.800781-2.003906 1.742188-2.554688 4.730469-3.964844 7.808594-3.691406 3.078125.277344 5.765625 2.195312 7.03125 5.015625 1.261719 2.820312.898438 6.101562-.945312 8.582031-1.042969 1.460938-2.214844 2.824219-3.507813 4.070312-.222656.304688-.46875.589844-.734375.851563-13.054688 11.714844-30.148438 17.902344-47.675781 17.265625zm0 0"/><path d="m414.15625 160.574219c-4.195312.015625-7.777344-3.019531-8.453125-7.15625-.679687-4.136719 1.75-8.152344 5.730469-9.476563 7.785156-2.644531 13.003906-9.972656 12.960937-18.191406-.011719-10.695312-8.675781-19.359375-19.371093-19.371094-4.582032-.050781-9.019532 1.589844-12.464844 4.605469-2.277344 1.996094-5.441406 2.636719-8.316406 1.679687-2.871094-.953124-5.023438-3.359374-5.652344-6.320312-.390625-1.601562-.988282-3.140625-1.785156-4.582031-.5625-1.230469-1.222657-2.414063-1.972657-3.542969-.71875-1.183594-1.546875-2.296875-2.472656-3.328125-.316406-.328125-.601563-.683594-.855469-1.066406l-.160156-.160157-.621094-.597656-.078125-.078125c-.652343-.429687-1.242187-.941406-1.757812-1.527343l-1.179688-1.007813c-.546875-.546875-1.183593-1-1.875-1.347656-.296875-.15625-.578125-.328125-.855469-.519531-.632812-.445313-1.304687-.828126-2.011718-1.144532-.292969-.121094-.578125-.261718-.855469-.417968-.273437-.101563-1.289063-.585938-1.542969-.714844-.4375-.195313-.886718-.355469-1.347656-.480469-.53125-.105469-1.054688-.265625-1.554688-.476563-.585937-.222656-1.191406-.390624-1.808593-.503906-.457031-.109375-.917969-.1875-1.382813-.238281-.382812-.035156-.765625-.09375-1.144531-.179687-2.6875-.527344-5.453125-.527344-8.140625 0-2.339844.519531-4.792969.027343-6.753906-1.351563-1.960938-1.378906-3.25-3.523437-3.554688-5.902344-1.996094-15.207031-14.949218-26.585937-30.292968-26.605469-2.558594.027344-5.101563.371094-7.574219 1.023438-4.121094 1.027344-8.367188-1.128906-9.96875-5.058594-8.53125-20.878906-30.621094-32.832031-52.765625-28.546875-22.144532 4.28125-38.1875 23.601563-38.320313 46.160157.910157 4.46875-1.863281 8.863281-6.289062 9.972656-7.847657 1.984375-14.789063 6.578125-19.683594 13.023437-1.847656 2.425781-4.847656 3.683594-7.871094 3.296875-3.027343-.382812-5.617187-2.351562-6.792969-5.164062-1.179687-2.8125-.769531-6.039063 1.078126-8.46875 5.847656-7.679688 13.6875-13.617188 22.664062-17.167969 2.105469-28.511719 22.765625-52.222656 50.722656-58.207031 27.957032-5.988282 56.511719 7.183594 70.109375 32.335937 22.558594-2.425781 43.648438 11.554688 50.199219 33.277344 2.199219-.003906 4.390625.195313 6.546875.597656 1.035156.121094 2.058594.300781 3.070313.539063 1.320312.285156 2.621093.65625 3.894531 1.109375.273437.066406.527343.136719.730469.203125 1.199218.363281 2.367187.804687 3.507812 1.316406.808594.328125 1.597656.707031 2.363281 1.125 1.441407.652344 2.824219 1.425781 4.132813 2.3125 1.875.988281 3.597656 2.242188 5.117187 3.722656.445313.355469.855469.722656 1.273438 1.097656.734375.53125 1.417969 1.128907 2.039062 1.785157l1.195313 1.261719c.386718.394531.742187.824218 1.058594 1.28125 1.492187 1.644531 2.839843 3.414062 4.027343 5.289062.753907 1.09375 1.433594 2.234375 2.039063 3.414062 12.269531-5.175781 26.386718-3.234374 36.808594 5.054688 10.421874 8.289062 15.484374 21.605469 13.203124 34.726562-2.285156 13.121094-11.546874 23.945313-24.15625 28.230469-.898437.304688-1.839843.460938-2.789062.460938zm0 0"/><path d="m337.621094 160.402344c-.871094 0-1.734375-.132813-2.5625-.390625-10.941406-3.421875-20.269532-10.699219-26.246094-20.480469-2.464844-4.027344-1.195312-9.285156 2.828125-11.746094 4.023437-2.464844 9.285156-1.195312 11.746094 2.828125 3.808593 6.265625 9.765625 10.929688 16.757812 13.125 4.050781 1.242188 6.574219 5.265625 5.933594 9.449219-.640625 4.1875-4.257813 7.269531-8.492187 7.242188zm0 0"/><path d="m375.839844 384.054688c-4.710938 0-8.53125-3.824219-8.53125-8.535157 0-11.945312-46.890625-34.132812-136.535156-34.132812-89.640626 0-136.53125 22.1875-136.53125 34.132812 0 4.710938-3.820313 8.535157-8.535157 8.535157-4.710937 0-8.53125-3.824219-8.53125-8.535157 0-33.613281 77.269531-51.199219 153.597657-51.199219 76.332031 0 153.601562 17.585938 153.601562 51.199219 0 4.710938-3.820312 8.535157-8.535156 8.535157zm0 0"/><path d="m166.519531 345.738281c-3.441406.007813-6.550781-2.046875-7.886719-5.21875-1.339843-3.167969-.640624-6.832031 1.765626-9.289062 13.851562-14.15625 26.457031-29.476563 37.675781-45.796875 9.003906-13.492188 12.425781-26.292969 9.386719-35.097656-2.335938-5.894532-7.378907-10.292969-13.535157-11.800782-17.042969-5.164062-31.023437-17.445312-38.339843-33.683594-4.722657-13.550781-2.792969-28.539062 5.207031-40.457031 2.398437-4.054687 7.632812-5.402343 11.691406-3 4.054687 2.398438 5.402344 7.632813 3.003906 11.6875-5.261719 7.515625-6.710937 17.054688-3.917969 25.789063 5.550782 11.367187 15.625 19.882812 27.757813 23.464844 11.265625 3.085937 20.328125 11.464843 24.285156 22.453124 4.839844 14.089844.8125 31.890626-11.339843 50.117188-11.800782 17.183594-25.0625 33.320312-39.636719 48.230469-1.605469 1.65625-3.8125 2.597656-6.117188 2.601562zm0 0"/><path d="m233.921875 215.09375c-1.6875.003906-3.339844-.5-4.742187-1.441406-5.628907-3.855469-11.738282-6.960938-18.167969-9.234375-6.933594-1.863281-12.59375-6.875-15.277344-13.535157-2.648437-9.273437-.941406-19.25 4.636719-27.117187 2.414062-3.992187 7.585937-5.308594 11.609375-2.949219 4.027343 2.355469 5.414062 7.507813 3.117187 11.566406-2.742187 3.546876-3.96875 8.035157-3.414062 12.484376.511718 1.355468 2.09375 2.492187 4.6875 3.355468 7.894531 2.753906 15.390625 6.539063 22.296875 11.253906 3.117187 2.09375 4.496093 5.980469 3.402343 9.570313-1.09375 3.59375-4.410156 6.046875-8.164062 6.046875zm0 0"/><path d="m255.179688 341.984375c-2.480469 0-4.839844-1.078125-6.460938-2.953125-8.105469-9.386719-18.839844-29.867188.34375-61.78125 7.273438-10.882812 8.632812-24.679688 3.617188-36.769531-1.816407-4.351563.242187-9.347657 4.589843-11.164063 4.351563-1.8125 9.347657.242188 11.164063 4.59375 7.113281 17.09375 5.34375 36.597656-4.738282 52.128906-10.410156 17.296876-11.09375 31.359376-2.054687 41.8125 2.183594 2.527344 2.691406 6.097657 1.300781 9.132813-1.386718 3.035156-4.421875 4.984375-7.761718 4.980469zm0 0"/><path d="m85.707031 418.1875h-17.066406c-4.710937 0-8.535156-3.820312-8.535156-8.535156 0-4.710938 3.824219-8.53125 8.535156-8.53125h17.066406c4.714844 0 8.535157 3.820312 8.535157 8.53125 0 4.714844-3.820313 8.535156-8.535157 8.535156zm0 0"/><path d="m205.175781 418.1875h-85.335937c-4.710938 0-8.53125-3.820312-8.53125-8.535156 0-4.710938 3.820312-8.53125 8.53125-8.53125h85.335937c4.710938 0 8.53125 3.820312 8.53125 8.53125 0 4.714844-3.820312 8.535156-8.53125 8.535156zm0 0"/></svg>